<?xml version="1.0" encoding="iso-8859-1"?>
<!-- Generator: Adobe Illustrator 19.0.0, SVG Export Plug-In . SVG Version: 6.00 Build 0)  -->
<svg version="1.1" id="Capa_1" xmlns="http://www.w3.org/2000/svg" xmlns:xlink="http://www.w3.org/1999/xlink" x="0px" y="0px"
	 viewBox="0 0 512 512" style="enable-background:new 0 0 512 512;" xml:space="preserve">
<path style="fill:#FF7B00;" d="M376.717,201.226c-0.021-95.705-78.516-173.56-174.996-173.56
	c-96.493,0-174.997,77.876-174.997,173.599c0,34.709,28.239,62.948,62.948,62.948s62.948-28.238,62.948-62.948
	s-28.239-62.948-62.948-62.948c-6.913,0-13.561,1.136-19.789,3.205c22.933-49.438,73.401-83.856,131.838-83.856
	s108.904,34.417,131.838,83.856c-6.227-2.068-12.876-3.205-19.789-3.205c-34.709,0-62.948,28.239-62.948,62.948
	s28.239,62.948,62.948,62.948c34.71,0,62.948-28.238,62.948-62.948C376.718,201.252,376.717,201.239,376.717,201.226z"/>
<path style="fill:#FF4F19;" d="M376.717,201.226C376.696,105.595,298.321,27.79,201.944,27.67v30
	c58.342,0.088,108.711,34.476,131.615,83.852c-6.227-2.068-12.876-3.205-19.789-3.205c-34.709,0-62.948,28.239-62.948,62.948
	s28.239,62.948,62.948,62.948c34.71,0,62.948-28.238,62.948-62.948C376.718,201.252,376.717,201.239,376.717,201.226z"/>
<path style="fill:#265D77;" d="M201.721,306.787c-104.946,0-190.327,85.381-190.327,190.327V512h380.653v-14.887
	C392.048,392.167,306.667,306.787,201.721,306.787z"/>
<path style="fill:#132F3B;" d="M201.721,306.787V512h190.327v-14.887C392.048,392.167,306.667,306.787,201.721,306.787z"/>
<polygon style="fill:#FFAB2D;" points="284.494,313.591 256.691,297.182 146.751,297.182 118.948,313.591 185.579,512 217.863,512 
	"/>
<rect x="276.615" y="415.993" style="fill:#6FC8F1;" width="29.999" height="29.999"/>
<polygon style="fill:#FF7B00;" points="256.691,297.182 201.721,297.182 201.721,512 217.863,512 284.494,313.591 "/>
<path style="fill:#FFE3BA;" d="M201.721,89.351c-72.166,0-130.878,58.712-130.878,130.878c0,72.167,58.712,130.878,130.878,130.878
	c72.167,0,130.879-58.712,130.879-130.878C332.599,148.063,273.888,89.351,201.721,89.351z"/>
<path style="fill:#FFCD81;" d="M201.721,351.108c72.167,0,130.879-58.712,130.879-130.878S273.888,89.352,201.721,89.352"/>
<rect x="52.614" y="251.666" style="fill:#FF7B00;" width="191.777" height="29.999"/>
<rect x="201.946" y="251.666" style="fill:#FF4F19;" width="42.439" height="29.999"/>
<polygon style="fill:#B7E4F8;" points="276.61,152.648 356.064,152.648 355.608,176.997 417.118,152.648 500.606,152.648 500.606,0 
	276.61,0 "/>
<polygon style="fill:#6FC8F1;" points="389.275,0 389.275,163.67 417.118,152.648 500.606,152.648 500.606,0 "/>
<g>
</g>
<g>
</g>
<g>
</g>
<g>
</g>
<g>
</g>
<g>
</g>
<g>
</g>
<g>
</g>
<g>
</g>
<g>
</g>
<g>
</g>
<g>
</g>
<g>
</g>
<g>
</g>
<g>
</g>
</svg>
